<svg version="1.1" x="0px" y="0px" width="770" height="206" xmlns="http://www.w3.org/2000/svg" xmlns:xlink="http://www.w3.org/1999/xlink" xmlns:a="http://ns.adobe.com/AdobeSVGViewerExtensions/3.0/" xml:space="preserve"><g transform="translate(20.416687011719 20.364593505859) scale(2.210523407017 2.2105227867925) rotate(0 33.821495056152 37.321495056152)"><path fill-rule="evenodd" clip-rule="evenodd" d="M20.791 58.611l2.929 6.653s8.344 4.411 19.121 1.707c11.44-2.87 17.834-13.952 16.555-26.526-.651-6.401-4.193-12.648-7.554-15.801-6.193-5.811-13.688-7.274-15.587-1.146-2.008 6.481 5.575 5.598 12.13 14.461 6.251 8.454 4.99 22.734-4.86 25.599-9.851 2.865-22.734-4.947-22.734-4.947z" fill="#ffffff"></path><path fill-rule="evenodd" clip-rule="evenodd" d="M37.93 7.256c.008.581-.004 1.185-.04 1.807 14.561 1.984 25.784 14.462 25.784 29.568 0 16.486-13.365 29.852-29.852 29.852S3.97 55.117 3.97 38.631c0-15.051 11.14-27.493 25.623-29.548.306-.647.58-1.29.828-1.913C13.339 8.875 0 23.29 0 40.821 0 59.5 15.143 74.643 33.822 74.643c18.679 0 33.821-15.143 33.821-33.821C67.644 23.533 54.67 9.285 37.93 7.256z" fill="#ffffff"></path><path fill-rule="evenodd" clip-rule="evenodd" d="M47.531 44.197a16.353 16.353 0 00-10.195-6.916c2.052.756 3.802 1.897 5.063 3.302.313.347.597.71.842 1.085.869 1.29 1.354 2.751 1.352 4.285-.009 6.462-6.84 10.76-14.162 9.65-6.678-1.014-11.764-6.813-10.532-16.295 1.269-9.766 7.879-15.854 12.312-22.123C37.608 9.56 34.722 0 34.722 0c0 .308-.074 9.15-8.337 16.521C12.16 29.223 9.961 37.503 9.103 42.805c-1.302 8.053 2.41 26.796 23.914 26.807.205 0 .415 0 .614-.005a.069.069 0 00.045 0c.085.005.171.005.256.005a16.14 16.14 0 003.455-.369c7.365-1.58 12.89-8.132 12.89-15.975a16.29 16.29 0 00-2.746-9.071z" fill="#ffffff"></path><path fill-rule="evenodd" clip-rule="evenodd" d="M30.271 27.304s-9.455 8.809-5.92 18.754c3.054 8.596 14.941 7.459 17.641 2.061-.001-.001-20.247 4.522-11.721-20.815z" fill="#ffffff"></path></g>
<g transform="translate(177.41668701172 117.99099728304)  scale(1.5797655823653 1.5797655823653)"><text dominant-baseline="auto" alignment-baseline="auto" font-family="Gotham Black" font-size="62px" fill="#ffffff" letter-spacing="0" xml:space="preserve">INNOWAVE</text></g>
<g transform="translate(183.9375 163.36459350586)  scale(1 1)"><text dominant-baseline="auto" alignment-baseline="auto" font-family="Gotham Black" font-size="34px" fill="#ffffff" letter-spacing="0" xml:space="preserve">The next aqua</text></g>
</svg>